<svg height="512pt" viewBox="0 0 512.00013 512" width="512pt" xmlns="http://www.w3.org/2000/svg"><path d="m61.804688 422.785156c-38.15625-44.378906-61.367188-101.972656-61.7968755-164.988281-.9765625-141.738281 114.2499995-257.796875 255.9921875-257.796875 141.386719 0 256 114.617188 256 256 0 63.433594-23.082031 121.472656-61.296875 166.191406-6.808594 7.96875-16.726563 12.601563-27.203125 12.601563h-335.601562c-10.035157 0-19.550782-4.398438-26.09375-12.007813zm0 0" fill="#016a74"/><path d="m451 60v361.847656c-46.957031 55.15625-116.886719 90.152344-195 90.152344s-148.042969-34.996094-195-90.152344v-361.847656c0-5.523438 4.476562-10 10-10h165v-10c0-11.046875 8.953125-20 20-20s20 8.953125 20 20v10h165c5.523438 0 10 4.476562 10 10zm0 0" fill="#dca050"/><path d="m256 480c-60.8125 0-116.945312-20.011719-162.195312-53.792969 43.886718 49.261719 106.507812 81.46875 176.695312 85.386719-4.800781.269531-9.632812.40625-14.5.40625-78.113281 0-148.042969-34.996094-195-90.152344v-361.847656c0-5.523438 4.476562-10 10-10h29c-5.523438 0-10 4.476562-10 10v144.941406c0 5.523438 4.476562 10 10 10h326.699219c2.929687 0 5.300781 2.371094 5.300781 5.300782v202.757812c-47.390625 40.40625-108.839844 57-176 57zm0 0" fill="#ce9047"/><path d="m151 210c-41.421875 0-75 33.578125-75 75s33.578125 75 75 75 75-33.578125 75-75-33.578125-75-75-75zm0 95c-11.046875 0-20-8.953125-20-20s8.953125-20 20-20 20 8.953125 20 20-8.953125 20-20 20zm0 0" fill="#fdd78d"/><path d="m130.25 357.070312c-31.324219-9.003906-54.25-37.851562-54.25-72.070312s22.925781-63.066406 54.25-72.070312c-21.164062 15.027343-35.25 41.679687-35.25 72.070312s14.085938 57.042969 35.25 72.070312zm0 0" fill="#fdcb6b"/><path d="m151 220c-35.898438 0-65 29.101562-65 65s29.101562 65 65 65 65-29.101562 65-65-29.101562-65-65-65zm0 85c-11.046875 0-20-8.953125-20-20s8.953125-20 20-20 20 8.953125 20 20-8.953125 20-20 20zm0 0" fill="#fff5f5"/><path d="m95 285c0 18.605469 5.285156 35.800781 14.234375 49.792969-14.199219-11.921875-23.234375-29.800781-23.234375-49.792969s9.035156-37.871094 23.234375-49.792969c-8.949219 13.992188-14.234375 31.1875-14.234375 49.792969zm0 0" fill="#fdcdc7"/><path d="m256 210c-41.421875 0-75 33.578125-75 75s33.578125 75 75 75 75-33.578125 75-75-33.578125-75-75-75zm0 95c-11.046875 0-20-8.953125-20-20s8.953125-20 20-20 20 8.953125 20 20-8.953125 20-20 20zm0 0" fill="#fdd78d"/><path d="m235.25 357.070312c-31.324219-9.003906-54.25-37.851562-54.25-72.070312s22.925781-63.066406 54.25-72.070312c-21.164062 15.027343-35.25 41.679687-35.25 72.070312s14.085938 57.042969 35.25 72.070312zm0 0" fill="#fdcb6b"/><path d="m256 220c-35.898438 0-65 29.101562-65 65s29.101562 65 65 65 65-29.101562 65-65-29.101562-65-65-65zm0 85c-11.046875 0-20-8.953125-20-20s8.953125-20 20-20 20 8.953125 20 20-8.953125 20-20 20zm0 0" fill="#fd7c66"/><path d="m292.902344 293.953125c4.390625-3.601563 7.097656-8.523437 7.097656-13.953125 0-11.046875-11.191406-20-25-20-.144531 0-.289062 0-.4375.003906-3.992188.054688-7.769531-1.546875-10.628906-4.335937-3.597656-3.507813-8.511719-5.667969-13.933594-5.667969-4.253906 0-8.195312 1.332031-11.433594 3.601562-5.023437 3.515626-10.390625 6.476563-15.96875 9.03125-7.527344 3.445313-12.597656 9.933594-12.597656 17.367188 0 6.417969 3.777344 12.125 9.648438 15.78125 5.855468 3.648438 9.695312 9.707031 10.488281 16.558594.007812.085937.019531.171875.03125.257812 1.160156 9.042969 8.507812 16.28125 17.570312 17.277344 7.15625.785156 13.65625-2.214844 17.761719-7.242188 4.132812 5.0625 10.6875 8.066407 17.902344 7.226563 9.070312-1.058594 16.375-8.355469 17.453125-17.421875.898437-7.566406-2.449219-14.394531-7.953125-18.484375zm-36.902344 11.046875c-11.046875 0-20-8.953125-20-20s8.953125-20 20-20 20 8.953125 20 20-8.953125 20-20 20zm-56-20c0 18.605469 5.285156 35.800781 14.234375 49.792969-14.199219-11.921875-23.234375-29.800781-23.234375-49.792969s9.035156-37.871094 23.234375-49.792969c-8.949219 13.992188-14.234375 31.1875-14.234375 49.792969zm0 0" fill="#fc544d"/><path d="m361 210c-41.421875 0-75 33.578125-75 75s33.578125 75 75 75 75-33.578125 75-75-33.578125-75-75-75zm0 95c-11.046875 0-20-8.953125-20-20s8.953125-20 20-20 20 8.953125 20 20-8.953125 20-20 20zm0 0" fill="#fdd78d"/><path d="m340.25 357.070312c-31.324219-9.003906-54.25-37.851562-54.25-72.070312s22.925781-63.066406 54.25-72.070312c-21.164062 15.027343-35.25 41.679687-35.25 72.070312s14.085938 57.042969 35.25 72.070312zm0 0" fill="#fdcb6b"/><path d="m296 285c0 35.898438 29.101562 65 65 65s65-29.101562 65-65-29.101562-65-65-65-65 29.101562-65 65zm85 0c0 11.046875-8.953125 20-20 20s-20-8.953125-20-20 8.953125-20 20-20 20 8.953125 20 20zm0 0" fill="#2abbc7"/><path d="m319.234375 235.207031c-8.949219 13.992188-14.234375 31.1875-14.234375 49.792969s5.285156 35.800781 14.234375 49.792969c-14.199219-11.921875-23.234375-29.800781-23.234375-49.792969s9.035156-37.871094 23.234375-49.792969zm86.765625 50.792969v.125c-.019531 6.199219-3.652344 11.757812-9.097656 14.726562-6.773438 3.6875-12.363282 9.277344-16.050782 16.050782-2.96875 5.445312-8.527343 9.078125-14.726562 9.097656-.042969 0-.082031 0-.125 0-22.988281 0-41.445312-19.390625-39.910156-42.703125 1.296875-19.746094 17.246094-35.777344 36.980468-37.191406.136719-.011719.273438-.019531.410157-.027344 7.246093-.445313 14.132812 3.339844 17.71875 9.652344 3.6875 6.492187 9.140625 11.847656 15.699219 15.421875 5.449218 2.964844 9.082031 8.523437 9.101562 14.726562zm-25-1c0-11.046875-8.953125-20-20-20s-20 8.953125-20 20 8.953125 20 20 20 20-8.953125 20-20zm0 0" fill="#0cabb9"/><path d="m151 310c-41.421875 0-75 33.578125-75 75s33.578125 75 75 75 75-33.578125 75-75-33.578125-75-75-75zm0 95c-11.046875 0-20-8.953125-20-20s8.953125-20 20-20 20 8.953125 20 20-8.953125 20-20 20zm0 0" fill="#fdd78d"/><path d="m151 320c-35.898438 0-65 29.101562-65 65s29.101562 65 65 65 65-29.101562 65-65-29.101562-65-65-65zm0 85c-11.046875 0-20-8.953125-20-20s8.953125-20 20-20 20 8.953125 20 20-8.953125 20-20 20zm0 0" fill="#925b44"/><path d="m130.25 457.070312c-31.324219-9.003906-54.25-37.851562-54.25-72.070312s22.925781-63.066406 54.25-72.070312c-21.164062 15.027343-35.25 41.679687-35.25 72.070312s14.085938 57.042969 35.25 72.070312zm0 0" fill="#fdcb6b"/><path d="m95 385c0 18.605469 5.285156 35.800781 14.234375 49.792969-14.199219-11.921875-23.234375-29.800781-23.234375-49.792969s9.035156-37.871094 23.234375-49.792969c-8.949219 13.992188-14.234375 31.1875-14.234375 49.792969zm86 10c-2.519531 0-4.464844 2.207031-4.152344 4.710938.363282 2.945312-.582031 6.023437-2.847656 8.289062s-5.34375 3.210938-8.289062 2.847656c-2.503907-.3125-4.710938 1.632813-4.710938 4.152344 0 5.742188-4.839844 10.355469-10.664062 9.980469-5.316407-.34375-9.335938-4.996094-9.335938-10.324219v-.566406c0-2.433594-2.0625-4.285156-4.496094-4.175782-2.699218.117188-5.441406-.851562-7.503906-2.914062-1.921875-1.921875-2.894531-4.429688-2.921875-6.949219-.03125-2.792969-2.28125-5.050781-5.078125-5.050781-5.742188 0-10.355469-4.839844-9.976562-10.664062.34375-5.316407 4.992187-9.335938 10.320312-9.335938 2.339844 0 4.226562-2.058594 3.859375-4.367188-.484375-3.050781.445313-6.28125 2.796875-8.632812 2.265625-2.265625 5.34375-3.210938 8.292969-2.84375 2.5.308594 4.707031-1.632812 4.707031-4.15625 0-5.742188 4.839844-10.355469 10.667969-9.976562 5.3125.34375 9.332031 4.992187 9.332031 10.320312 0 2.605469 2.101562 4.796875 4.707031 4.738281 2.632813-.0625 5.28125.910157 7.292969 2.917969 2.011719 2.011719 2.980469 4.660156 2.921875 7.292969-.0625 2.605469 2.132813 4.707031 4.734375 4.707031 5.328125 0 9.980469 4.019531 10.324219 9.335938.375 5.824218-4.238281 10.664062-9.980469 10.664062zm-10-10c0-11.046875-8.953125-20-20-20s-20 8.953125-20 20 8.953125 20 20 20 20-8.953125 20-20zm-46-45c2.761719 0 5-2.238281 5-5s-2.238281-5-5-5-5 2.238281-5 5 2.238281 5 5 5zm50 10c2.761719 0 5-2.238281 5-5s-2.238281-5-5-5-5 2.238281-5 5 2.238281 5 5 5zm-60 10c2.761719 0 5-2.238281 5-5s-2.238281-5-5-5-5 2.238281-5 5 2.238281 5 5 5zm-10 40c-2.761719 0-5 2.238281-5 5s2.238281 5 5 5 5-2.238281 5-5-2.238281-5-5-5zm0 0" fill="#6d4336"/><path d="m135 240c0 2.761719-2.238281 5-5 5s-5-2.238281-5-5 2.238281-5 5-5 5 2.238281 5 5zm-5 15c-2.761719 0-5 2.238281-5 5s2.238281 5 5 5 5-2.238281 5-5-2.238281-5-5-5zm50-30c-2.761719 0-5 2.238281-5 5s2.238281 5 5 5 5-2.238281 5-5-2.238281-5-5-5zm-80 80c-2.761719 0-5 2.238281-5 5s2.238281 5 5 5 5-2.238281 5-5-2.238281-5-5-5zm0 0" fill="#fc544d"/><path d="m175 300c0 2.761719-2.238281 5-5 5s-5-2.238281-5-5 2.238281-5 5-5 5 2.238281 5 5zm-75-35c-2.761719 0-5 2.238281-5 5s2.238281 5 5 5 5-2.238281 5-5-2.238281-5-5-5zm10 20c-2.761719 0-5 2.238281-5 5s2.238281 5 5 5 5-2.238281 5-5-2.238281-5-5-5zm50-40c-2.761719 0-5 2.238281-5 5s2.238281 5 5 5 5-2.238281 5-5-2.238281-5-5-5zm0 0" fill="#0cabb9"/><path d="m256 310c-41.421875 0-75 33.578125-75 75s33.578125 75 75 75 75-33.578125 75-75-33.578125-75-75-75zm0 95c-11.046875 0-20-8.953125-20-20s8.953125-20 20-20 20 8.953125 20 20-8.953125 20-20 20zm0 0" fill="#fdd78d"/><path d="m256 320c-35.898438 0-65 29.101562-65 65s29.101562 65 65 65 65-29.101562 65-65-29.101562-65-65-65zm0 85c-11.046875 0-20-8.953125-20-20s8.953125-20 20-20 20 8.953125 20 20-8.953125 20-20 20zm0 0" fill="#fff2b4"/><path d="m235.25 457.070312c-31.324219-9.003906-54.25-37.851562-54.25-72.070312s22.925781-63.066406 54.25-72.070312c-21.164062 15.027343-35.25 41.679687-35.25 72.070312s14.085938 57.042969 35.25 72.070312zm0 0" fill="#fdcb6b"/><path d="m230 325.425781c3.207031-1.402343 6.546875-2.5625 10-3.4375v51.046875c-2.5 3.339844-4 7.472656-4 11.964844s1.5 8.625 4 11.964844v51.046875c-3.453125-.875-6.792969-2.035157-10-3.4375zm-20 13.667969c-11.738281 11.757812-19 27.980469-19 45.90625 0 14.523438 4.765625 27.929688 12.816406 38.75 1.457032 1.953125 4.476563.183594 3.527344-2.058594-4.707031-11.105468-7.34375-23.546875-7.34375-36.691406 0-15.445312 3.644531-29.917969 10-42.394531v88.316406c3.046875 3.050781 6.398438 5.796875 10 8.195313v-108.234376c-3.601562 2.398438-6.953125 5.144532-10 8.195313zm40 64.988281v45.632813c1.976562.179687 3.976562.285156 6 .285156 1.34375 0 2.675781-.054688 4-.132812v-45.269532c-1.292969.261719-2.628906.402344-4 .402344-2.089844 0-4.105469-.324219-6-.917969zm0-83.796875v45.632813c1.894531-.59375 3.910156-.917969 6-.917969 1.371094 0 2.707031.140625 4 .402344v-45.265625c-1.324219-.082031-2.65625-.136719-4-.136719-2.023438 0-4.023438.105469-6 .285156zm20 50.445313c3.699219 3.628906 6 8.679687 6 14.269531s-2.300781 10.640625-6 14.269531v49.203125c3.445312-.757812 6.785156-1.789062 10-3.070312v-120.808594c-3.214844-1.277344-6.554688-2.3125-10-3.066406zm20-41.128907v110.796876c3.578125-2.199219 6.925781-4.738282 10-7.566407v-95.664062c-3.074219-2.832031-6.421875-5.367188-10-7.566407zm0 0" fill="#ffe899"/><path d="m361 310c-41.421875 0-75 33.578125-75 75s33.578125 75 75 75 75-33.578125 75-75-33.578125-75-75-75zm0 95c-11.046875 0-20-8.953125-20-20s8.953125-20 20-20 20 8.953125 20 20-8.953125 20-20 20zm0 0" fill="#fdd78d"/><path d="m361 320c-35.898438 0-65 29.101562-65 65s29.101562 65 65 65 65-29.101562 65-65-29.101562-65-65-65zm0 85c-11.046875 0-20-8.953125-20-20s8.953125-20 20-20 20 8.953125 20 20-8.953125 20-20 20zm0 0" fill="#925b44"/><path d="m340.25 457.070312c-31.324219-9.003906-54.25-37.851562-54.25-72.070312s22.925781-63.066406 54.25-72.070312c-21.164062 15.027343-35.25 41.679687-35.25 72.070312s14.085938 57.042969 35.25 72.070312zm0 0" fill="#fdcb6b"/><path d="m305 385c0 18.605469 5.285156 35.800781 14.234375 49.792969-14.199219-11.921875-23.234375-29.800781-23.234375-49.792969s9.035156-37.871094 23.234375-49.792969c-8.949219 13.992188-14.234375 31.1875-14.234375 49.792969zm0 0" fill="#6d4336"/><path d="m350 340c0 2.761719-2.238281 5-5 5s-5-2.238281-5-5 2.238281-5 5-5 5 2.238281 5 5zm-5 75c-2.761719 0-5 2.238281-5 5s2.238281 5 5 5 5-2.238281 5-5-2.238281-5-5-5zm40-10c-2.761719 0-5 2.238281-5 5s2.238281 5 5 5 5-2.238281 5-5-2.238281-5-5-5zm-70-10c-2.761719 0-5 2.238281-5 5s2.238281 5 5 5 5-2.238281 5-5-2.238281-5-5-5zm75-35c-2.761719 0-5 2.238281-5 5s2.238281 5 5 5 5-2.238281 5-5-2.238281-5-5-5zm-15-25c-2.761719 0-5 2.238281-5 5s2.238281 5 5 5 5-2.238281 5-5-2.238281-5-5-5zm0 0" fill="#fd8e82"/><path d="m320 370c0 2.761719-2.238281 5-5 5s-5-2.238281-5-5 2.238281-5 5-5 5 2.238281 5 5zm10 10c-2.761719 0-5 2.238281-5 5s2.238281 5 5 5 5-2.238281 5-5-2.238281-5-5-5zm20-30c-2.761719 0-5 2.238281-5 5s2.238281 5 5 5 5-2.238281 5-5-2.238281-5-5-5zm55 35c-2.761719 0-5 2.238281-5 5s2.238281 5 5 5 5-2.238281 5-5-2.238281-5-5-5zm0-40c0-2.761719-2.238281-5-5-5s-5 2.238281-5 5 2.238281 5 5 5 5-2.238281 5-5zm0 0" fill="#fdbf43"/><path d="m451 420v1.847656c-46.957031 55.15625-116.886719 90.152344-195 90.152344s-148.042969-34.996094-195-90.152344v-1.847656h170.507812c2.375 0 4.417969 1.671875 4.890626 4 1.855468 9.128906 9.925781 16 19.601562 16s17.746094-6.871094 19.601562-16c.472657-2.328125 2.515626-4 4.890626-4zm0 0" fill="#fbc56d"/></svg>
